<svg width="28" height="28" viewBox="0 0 28 28" version="1.1" xmlns="http://www.w3.org/2000/svg" xmlns:xlink="http://www.w3.org/1999/xlink">
<g id="Canvas" fill="none">
<rect width="28" height="28" fill="white"/>
<g id="Group 15.1">
<g id="Rectangle">
<rect width="1366" height="495" transform="translate(-164 -297)" fill="black"/>
</g>
<g id="Group 14.1">
<g id="Group 12">
<g id="Group 11">
<g id="Ellipse">
<circle cx="14" cy="14" r="13.5" stroke="white"/>
</g>
<g id="icon-arrow-right copy 2">
<path d="M 5.79888 1.09871C 6.06699 0.847637 6.06699 0.436805 5.79888 0.18534C 5.53502 -0.061756 5.11113 -0.061756 4.84743 0.185196L 0.200997 4.54325C 0.0725547 4.66372 0 4.82801 0 4.99993C 0 5.17185 0.0725547 5.33614 0.200997 5.45662L 4.84727 9.81453C 4.97535 9.93503 5.14633 10 5.32308 10C 5.49982 10 5.67081 9.93503 5.79919 9.81424C 6.06701 9.56343 6.06701 9.15225 5.79873 8.90102L 1.63951 4.99993L 5.79888 1.09871Z" transform="translate(10.5 9)" fill="white"/>
</g>
</g>
</g>
</g>
</g>
</g>
</svg>

