<?xml version="1.0" encoding="utf-8"?>
<!-- Generator: Adobe Illustrator 19.1.0, SVG Export Plug-In . SVG Version: 6.00 Build 0)  -->
<svg version="1.1" id="Layer_1" xmlns="http://www.w3.org/2000/svg" xmlns:xlink="http://www.w3.org/1999/xlink" x="0px" y="0px"
	 viewBox="0 0 25 25" style="enable-background:new 0 0 25 25;" xml:space="preserve">
<style type="text/css">
	.st0{fill:#4E9632;}
</style>
<g>
	<path class="st0" d="M12.5,25C5.6,25,0,19.4,0,12.5S5.6,0,12.5,0S25,5.6,25,12.5S19.4,25,12.5,25z M12.5,0.5c-6.6,0-12,5.4-12,12.1
		s5.4,12,12,12s12-5.4,12-12S19.1,0.5,12.5,0.5z"/>
</g>
<path class="st0" d="M15.2,10.5h-4V9c0-0.5,0.3-1,0.8-1h0.8c0.5,0,0.8,0.4,0.8,1v0.4h1.6V9c0-1.2-1.1-2.3-2.3-2.3h-0.8
	c-1.2,0-2.4,1.1-2.4,2.3v1.5c-0.6,0-1,0-1,0.7v5.2c0,0.6,0.5,1.1,1.1,1.1h5.4c0.6,0,1.1-0.5,1.1-1.1v-5.2
	C16.3,10.6,15.8,10.5,15.2,10.5z M13.1,14.3V16h-1.2v-1.7c-0.4-0.2-0.6-0.6-0.6-1c0-0.7,0.5-1.2,1.2-1.2s1.2,0.5,1.2,1.2
	C13.7,13.7,13.5,14.1,13.1,14.3z"/>
</svg>
