<svg fill="none" height="34" viewBox="0 0 34 34" width="34" xmlns="http://www.w3.org/2000/svg"><path d="m1 1h32v32h-32z" fill="none"/><path clip-rule="evenodd" d="m17 33c8.8366 0 16-7.1634 16-16 0-8.83656-7.1634-16-16-16-8.83656 0-16 7.16344-16 16 0 8.8366 7.16344 16 16 16z" fill-rule="evenodd" stroke="#949aa4"/><path d="m10.4536 10.4551h13.0909v13.0909h-13.0909z" fill="none"/><path d="m22.822 10.4551h-11.6463c-.3989.0002-.7222.3236-.7221.7225v11.6463c.0002.3989.3237.7222.7226.7221h6.2703v-5.0625h-1.7003v-1.9815h1.7003v-1.4583c0-1.6909 1.0326-2.6116 2.541-2.6116.7224 0 1.3433.0539 1.5244.0779v1.7675h-1.0403c-.8207 0-.9796.3901-.9796.9624v1.2621h1.9622l-.2557 1.9815h-1.7065v5.0625h3.33c.1916 0 .3754-.0761.5109-.2116s.2117-.3193.2116-.511v-11.6463c-.0002-.3989-.3236-.7221-.7225-.722z" fill="#dbdde1"/></svg>