<svg fill="none" height="34" viewBox="0 0 34 34" width="34" xmlns="http://www.w3.org/2000/svg" xmlns:xlink="http://www.w3.org/1999/xlink"><mask id="a" height="11" maskUnits="userSpaceOnUse" width="11" x="12" y="11"><path clip-rule="evenodd" d="m21.2666 13.6929c.53 0 .9597-.4297.9597-.96 0-.5298-.4297-.9595-.9597-.9595s-.9597.4297-.9597.9595c0 .5303.4297.96.9597.96zm-6.9355 3.3095c0 1.4722 1.1936 2.6656 2.6657 2.6656 1.4724 0 2.6658-1.1934 2.6658-2.6656 0-1.4726-1.1934-2.666-2.6658-2.666-1.4721 0-2.6657 1.1934-2.6657 2.666zm-1.4405 0c0-2.268 1.8386-4.1069 4.107-4.1069 2.268 0 4.1066 1.8389 4.1066 4.1069 0 2.2681-1.8386 4.1065-4.1066 4.1065-2.2684 0-4.107-1.8384-4.107-4.1065z" fill="#fff" fill-rule="evenodd"/></mask><path d="m1 1h32v32h-32z" fill="none"/><path clip-rule="evenodd" d="m17 33c8.8366 0 16-7.1634 16-16 0-8.83656-7.1634-16-16-16-8.83656 0-16 7.16344-16 16 0 8.8366 7.16344 16 16 16z" fill-rule="evenodd" stroke="#949aa4"/><path d="m9 9.00488h15.995v15.995h-15.995z" fill="none"/><path clip-rule="evenodd" d="m16.9975 9.00488c-2.172 0-2.4444.00921-3.2974.04813-.8512.03883-1.4326.17403-1.9413.37175-.5259.20435-.9719.47781-1.4165.92244-.44462.4446-.71808.8906-.92243 1.4165-.19771.5087-.33292 1.0901-.37174 1.9413-.03892.853-.04813 1.1254-.04813 3.2974 0 2.1719.00921 2.4443.04813 3.2973.03882.8512.17403 1.4326.37174 1.9413.20435.5259.47781.9719.92243 1.4165.4446.4447.8906.7181 1.4165.9225.5087.1977 1.0901.3329 1.9413.3717.853.0389 1.1254.0481 3.2974.0481s2.4443-.0092 3.2973-.0481c.8513-.0388 1.4326-.174 1.9413-.3717.5259-.2044.9719-.4778 1.4166-.9225.4446-.4446.718-.8906.9224-1.4165.1977-.5087.3329-1.0901.3717-1.9413.0389-.853.0482-1.1254.0482-3.2973 0-2.172-.0093-2.4444-.0482-3.2974-.0388-.8512-.174-1.4326-.3717-1.9413-.2044-.5259-.4778-.9719-.9224-1.4165-.4447-.44463-.8907-.71809-1.4166-.92244-.5087-.19772-1.09-.33292-1.9413-.37175-.853-.03892-1.1253-.04813-3.2973-.04813zm-.0006 1.44092c2.1354 0 2.3884.0082 3.2317.0466.7797.0356 1.2032.1659 1.485.2754.3733.1451.6397.3184.9196.5983.2798.2798.4531.5462.5982.9195.1095.2818.2398.7053.2754 1.485.0385.8433.0466 1.0963.0466 3.2317s-.0081 2.3884-.0466 3.2317c-.0356.7797-.1659 1.2032-.2754 1.485-.1451.3733-.3184.6397-.5982.9195-.2799.2799-.5463.4532-.9196.5983-.2818.1095-.7053.2398-1.485.2754-.8432.0384-1.0961.0466-3.2317.0466-2.1355 0-2.3884-.0082-3.2316-.0466-.7798-.0356-1.2033-.1659-1.4851-.2754-.3733-.1451-.6397-.3184-.9195-.5983-.2799-.2798-.4532-.5462-.5983-.9195-.1095-.2818-.2398-.7053-.2753-1.485-.0385-.8433-.0467-1.0963-.0467-3.2317s.0082-2.3884.0467-3.2317c.0355-.7797.1658-1.2032.2753-1.485.1451-.3733.3184-.6397.5983-.9195.2798-.2799.5462-.4532.9195-.5983.2818-.1095.7053-.2398 1.4851-.2754.8433-.0384 1.0962-.0466 3.2316-.0466z" fill="#dbdde1" fill-rule="evenodd"/><path clip-rule="evenodd" d="m21.2666 13.6929c.53 0 .9597-.4297.9597-.96 0-.5298-.4297-.9595-.9597-.9595s-.9597.4297-.9597.9595c0 .5303.4297.96.9597.96zm-6.9355 3.3095c0 1.4722 1.1936 2.6656 2.6657 2.6656 1.4724 0 2.6658-1.1934 2.6658-2.6656 0-1.4726-1.1934-2.666-2.6658-2.666-1.4721 0-2.6657 1.1934-2.6657 2.666zm-1.4405 0c0-2.268 1.8386-4.1069 4.107-4.1069 2.268 0 4.1066 1.8389 4.1066 4.1069 0 2.2681-1.8386 4.1065-4.1066 4.1065-2.2684 0-4.107-1.8384-4.107-4.1065z" fill="#0a0b09" fill-rule="evenodd"/><g mask="url(#a)"><path d="m9 8.99902h16v16h-16z" fill="#dbdde1"/></g></svg>