<svg fill="none" height="34" viewBox="0 0 34 34" width="34" xmlns="http://www.w3.org/2000/svg"><path d="m1 1h32v32h-32z" fill="none"/><g clip-rule="evenodd" fill-rule="evenodd"><path d="m17 33c8.8366 0 16-7.1634 16-16 0-8.83656-7.1634-16-16-16-8.83656 0-16 7.16344-16 16 0 8.8366 7.16344 16 16 16z" stroke="#949aa4"/><path d="m14.759 24.2726c6.0377 0 9.3401-5.0369 9.3401-9.4049 0-.1431 0-.2855-.0096-.4273.6425-.4679 1.1971-1.0473 1.6378-1.711-.5991.2674-1.2347.4426-1.8854.5201.6851-.413 1.1982-1.063 1.4432-1.8283-.6444.385-1.3494.6564-2.0845.8024-.6207-.6646-1.4876-1.042-2.3936-1.042-1.8025 0-3.2857 1.4936-3.2857 3.3086 0 .2517.0285.5028.085.748-2.6381-.1331-5.0994-1.3896-6.7654-3.4535-.86637 1.5018-.4181 3.448 1.0163 4.4124-.5224-.0156-1.0334-.1575-1.4899-.4137v.0419c.0004 1.5675 1.1077 2.9298 2.6336 3.2402-.4833.1327-.9904.1521-1.4822.0567.4289 1.3432 1.6659 2.269 3.0668 2.2955-1.1621.9197-2.5986 1.4193-4.0768 1.4178-.2611-.0005-.52208-.0165-.78141-.0477 1.50101.9699 3.24811 1.4846 5.03171 1.4822" fill="#dbdde1"/></g></svg>