<svg fill="none" height="34" viewBox="0 0 34 34" width="34" xmlns="http://www.w3.org/2000/svg"><path d="m1 1h32v32h-32z" fill="none"/><path clip-rule="evenodd" d="m17 33c8.8366 0 16-7.1634 16-16 0-8.83656-7.1634-16-16-16-8.83656 0-16 7.16344-16 16 0 8.8366 7.16344 16 16 16z" fill-rule="evenodd" stroke="#949aa4"/><path d="m8.27271 10.8184h17.4546v12.3637h-17.4546z" fill="none"/><path clip-rule="evenodd" d="m23.8193 11.1875c.751.2031 1.3426.8018 1.5432 1.5615.3648 1.3775.3648 4.251.3648 4.251s0 2.874-.3648 4.2515c-.2006.7597-.7922 1.3584-1.5432 1.5615-1.361.3691-6.8193.3691-6.8193.3691s-5.4583 0-6.8193-.3691c-.75101-.2031-1.34257-.8018-1.54325-1.5615-.36474-1.3775-.36474-4.2515-.36474-4.2515s0-2.8735.36474-4.251c.20068-.7597.79224-1.3584 1.54325-1.5615 1.361-.3691 6.8193-.3691 6.8193-.3691s5.4583 0 6.8193.3691zm-4.0434 5.813-4.562 2.6089v-5.2183z" fill="#dbdde1" fill-rule="evenodd"/></svg>