<svg fill="none" height="12" viewBox="0 0 11 12" width="11" xmlns="http://www.w3.org/2000/svg"><path d="m0 0h10.1111v11.25h-10.1111z" fill="none"/><g fill="#949aa4"><path clip-rule="evenodd" d="m0 5.3125c0-.34518.282931-.625.631944-.625h8.847226c.34901 0 .63193.27982.63193.625v5.3125c0 .3452-.28292.625-.63193.625h-8.847226c-.349013 0-.631944-.2798-.631944-.625zm1.26389.625v4.0625h7.58333v-4.0625z" fill-rule="evenodd"/><path d="m1 11v-6h4 4v6z"/><path clip-rule="evenodd" d="m5.05534 1.25c-1.35826 0-2.52778 1.17395-2.52778 2.70833v1.04167h-1.26389v-1.04167c0-2.14751 1.65979-3.95833 3.79167-3.95833s3.79167 1.81082 3.79167 3.95833v1.04167h-1.26389v-1.04167c0-1.53438-1.16953-2.70833-2.52778-2.70833z" fill-rule="evenodd"/></g></svg>