<?xml version="1.0" encoding="UTF-8" standalone="no"?>
<svg width="21px" height="21px" viewBox="0 0 21 21" version="1.1" xmlns="http://www.w3.org/2000/svg" xmlns:xlink="http://www.w3.org/1999/xlink">
    <!-- Generator: Sketch 40.3 (33839) - http://www.bohemiancoding.com/sketch -->
    <title>Combined Shape</title>
    <desc>Created with Sketch.</desc>
    <defs></defs>
    <g id="Page-1" stroke="none" stroke-width="1" fill="none" fill-rule="evenodd">
        <path d="M11.6066017,10.1923882 L20.0918831,18.6776695 C20.4824074,19.0681938 20.4824074,19.7013588 20.0918831,20.0918831 C19.7013588,20.4824074 19.0681938,20.4824074 18.6776695,20.0918831 L10.1923882,11.6066017 L1.70710678,20.0918831 C1.31658249,20.4824074 0.683417511,20.4824074 0.292893219,20.0918831 C-0.0976310729,19.7013588 -0.0976310729,19.0681938 0.292893219,18.6776695 L8.77817459,10.1923882 L0.292893219,1.70710678 C-0.0976310729,1.31658249 -0.0976310729,0.683417511 0.292893219,0.292893219 C0.683417511,-0.0976310729 1.31658249,-0.0976310729 1.70710678,0.292893219 L10.1923882,8.77817459 L18.6776695,0.292893219 C19.0681938,-0.0976310729 19.7013588,-0.0976310729 20.0918831,0.292893219 C20.4824074,0.683417511 20.4824074,1.31658249 20.0918831,1.70710678 L11.6066017,10.1923882 Z" id="Combined-Shape" fill="#ffffff"></path>
    </g>
</svg>